<?xml version="1.0" encoding="utf-8"?>
<!-- Generator: Adobe Illustrator 27.1.1, SVG Export Plug-In . SVG Version: 6.00 Build 0)  -->
<svg version="1.1" id="Layer_1" xmlns:sketch="http://www.bohemiancoding.com/sketch/ns"
	 xmlns="http://www.w3.org/2000/svg" xmlns:xlink="http://www.w3.org/1999/xlink" x="0px" y="0px" viewBox="0 0 800 800"
	 style="enable-background:new 0 0 800 800;" xml:space="preserve">
<style type="text/css">
	.st0{fill-rule:evenodd;clip-rule:evenodd;}
</style>
<g id="Page-1" sketch:type="MSPage">
	<g id="Icon-Set" transform="translate(-204.000000, -671.000000)" sketch:type="MSLayerGroup">
		<path id="globe" sketch:type="MSShapeGroup" class="st0" d="M893.9,1266.7c-47.9-15.9-99.3-27.8-153.5-35.5
			c7.4-43.3,11.3-88.7,12.5-135.2h200.1C948.6,1159,927.4,1217.4,893.9,1266.7L893.9,1266.7z M689.9,1410
			c16.6-40.2,30.3-83.7,40.7-129.5c45,6.6,88.1,16.5,128.9,29.4C814.4,1357.9,755.8,1393.3,689.9,1410L689.9,1410z M628.3,1419.8
			c-8,0.6-16.1,1.2-24.3,1.2s-16.2-0.7-24.3-1.2c-21.3-44.3-38.5-93.6-51.3-145.9c24.9-2.2,50-3.4,75.5-3.4s50.7,1.3,75.6,3.4
			C666.8,1326.2,649.6,1375.5,628.3,1419.8L628.3,1419.8z M348.5,1309.9c40.8-12.9,83.9-22.7,128.9-29.4
			c10.5,45.8,24.1,89.3,40.7,129.5C452.2,1393.3,393.6,1357.9,348.5,1309.9L348.5,1309.9z M314.1,1266.7
			c-33.5-49.4-54.7-107.7-59.2-170.7h200.1c1.3,46.5,5.2,91.9,12.5,135.2C413.5,1238.9,362,1250.8,314.1,1266.7L314.1,1266.7z
			 M314.1,875.3c47.9,15.9,99.3,27.8,153.5,35.5c-7.4,43.3-11.3,88.7-12.5,135.2H254.9C259.4,983,280.6,924.6,314.1,875.3
			L314.1,875.3z M518.1,732c-16.6,40.2-30.3,83.7-40.7,129.5c-45-6.6-88.1-16.5-128.9-29.4C393.6,784.1,452.2,748.7,518.1,732
			L518.1,732z M579.7,722.2c8.1-0.6,16.1-1.2,24.3-1.2s16.2,0.7,24.3,1.2c21.3,44.3,38.5,93.6,51.3,145.9c-24.9,2.2-50,3.5-75.6,3.5
			s-50.7-1.3-75.5-3.5C541.2,815.9,558.4,766.5,579.7,722.2L579.7,722.2z M702.8,1096c-1.3,44-5.3,87.3-12.9,128.9
			c-28.1-2.5-56.8-3.9-86-3.9s-57.8,1.4-86,3.9c-7.6-41.6-11.5-84.9-12.9-128.9H702.8L702.8,1096z M505.2,1046
			c1.3-44,5.3-87.3,12.9-128.9c28.1,2.5,56.8,3.9,86,3.9s57.8-1.4,86-3.9c7.6,41.6,11.5,84.9,12.9,128.9H505.2L505.2,1046z
			 M859.5,832.1c-40.8,12.9-83.9,22.8-128.9,29.4c-10.5-45.8-24.1-89.3-40.7-129.5C755.8,748.7,814.4,784.1,859.5,832.1L859.5,832.1
			z M893.9,875.3c33.5,49.4,54.7,107.7,59.2,170.7H752.9c-1.3-46.5-5.2-91.9-12.5-135.2C794.5,903.1,846,891.2,893.9,875.3
			L893.9,875.3z M604,671c-220.9,0-400,179.1-400,400s179.1,400,400,400s400-179.1,400-400S824.9,671,604,671L604,671z"/>
	</g>
</g>
</svg>
